<svg width="323" height="71" viewBox="0 0 323 71" fill="none" xmlns="http://www.w3.org/2000/svg">
<path d="M87 55C84.2333 55 81.6333 54.4747 79.2 53.424C76.7667 52.3747 74.65 50.95 72.85 49.15C71.05 47.35 69.6253 45.2333 68.576 42.8C67.5253 40.3667 67 37.7667 67 35C67 32.2333 67.5253 29.6333 68.576 27.2C69.6253 24.7667 71.05 22.65 72.85 20.85C74.65 19.05 76.7667 17.6247 79.2 16.574C81.6333 15.5247 84.2333 15 87 15C89.7667 15 92.3667 15.5247 94.8 16.574C97.2333 17.6247 99.35 19.05 101.15 20.85C102.95 22.65 104.375 24.7667 105.424 27.2C106.475 29.6333 107 32.2333 107 35C107 37.7667 106.475 40.3667 105.424 42.8C104.375 45.2333 102.95 47.35 101.15 49.15C99.35 50.95 97.2333 52.3747 94.8 53.424C92.3667 54.4747 89.7667 55 87 55ZM85 50.9V47C83.9 47 82.9587 46.6087 82.176 45.826C81.392 45.042 81 44.1 81 43V41L71.4 31.4C71.3 32 71.208 32.6 71.124 33.2C71.0413 33.8 71 34.4 71 35C71 39.0333 72.3253 42.5667 74.976 45.6C77.6253 48.6333 80.9667 50.4 85 50.9ZM98.8 45.8C99.4667 45.0667 100.067 44.2747 100.6 43.424C101.133 42.5747 101.575 41.6913 101.926 40.774C102.275 39.858 102.542 38.9167 102.726 37.95C102.909 36.9833 103 36 103 35C103 31.7333 102.092 28.75 100.276 26.05C98.4587 23.35 96.0333 21.4 93 20.2V21C93 22.1 92.6087 23.0413 91.826 23.824C91.042 24.608 90.1 25 89 25H85V29C85 29.5667 84.8087 30.0413 84.426 30.424C84.042 30.808 83.5667 31 83 31H79V35H91C91.5667 35 92.042 35.1913 92.426 35.574C92.8087 35.958 93 36.4333 93 37V43H95C95.8667 43 96.65 43.258 97.35 43.774C98.05 44.2913 98.5333 44.9667 98.8 45.8Z" fill="#92C0D0"/>
<path d="M64.128 9.328L51.648 54H41.088L32.704 22.192L23.936 54L13.44 54.064L1.408 9.328H11.008L18.88 44.016L27.968 9.328H37.952L46.528 43.824L54.464 9.328H64.128ZM124.689 24.048C125.841 22.1707 127.334 20.6987 129.169 19.632C131.046 18.5653 133.179 18.032 135.569 18.032V27.44H133.201C130.385 27.44 128.251 28.1013 126.801 29.424C125.393 30.7467 124.689 33.0507 124.689 36.336V54H115.729V18.544H124.689V24.048ZM150.564 6.64V54H141.604V6.64H150.564ZM157.112 36.144C157.112 32.56 157.816 29.3813 159.224 26.608C160.675 23.8347 162.637 21.7013 165.112 20.208C167.587 18.7147 170.339 17.968 173.368 17.968C175.672 17.968 177.869 18.48 179.96 19.504C182.051 20.4853 183.715 21.808 184.952 23.472V6.64H194.04V54H184.952V48.752C183.843 50.5013 182.285 51.9093 180.28 52.976C178.275 54.0427 175.949 54.576 173.304 54.576C170.317 54.576 167.587 53.808 165.112 52.272C162.637 50.736 160.675 48.5813 159.224 45.808C157.816 42.992 157.112 39.7707 157.112 36.144ZM185.016 36.272C185.016 34.096 184.589 32.24 183.736 30.704C182.883 29.1253 181.731 27.9307 180.28 27.12C178.829 26.2667 177.272 25.84 175.608 25.84C173.944 25.84 172.408 26.2453 171 27.056C169.592 27.8667 168.44 29.0613 167.544 30.64C166.691 32.176 166.264 34.0107 166.264 36.144C166.264 38.2773 166.691 40.1547 167.544 41.776C168.44 43.3547 169.592 44.5707 171 45.424C172.451 46.2773 173.987 46.704 175.608 46.704C177.272 46.704 178.829 46.2987 180.28 45.488C181.731 44.6347 182.883 43.44 183.736 41.904C184.589 40.3253 185.016 38.448 185.016 36.272ZM233.191 9.328V16.56H221.287V54H212.327V16.56H200.423V9.328H233.191ZM248.689 24.048C249.841 22.1707 251.334 20.6987 253.169 19.632C255.046 18.5653 257.179 18.032 259.569 18.032V27.44H257.201C254.385 27.44 252.251 28.1013 250.801 29.424C249.393 30.7467 248.689 33.0507 248.689 36.336V54H239.729V18.544H248.689V24.048ZM270.148 14.32C268.569 14.32 267.246 13.8293 266.18 12.848C265.156 11.824 264.644 10.5653 264.644 9.072C264.644 7.57866 265.156 6.34133 266.18 5.36C267.246 4.336 268.569 3.824 270.148 3.824C271.726 3.824 273.028 4.336 274.052 5.36C275.118 6.34133 275.652 7.57866 275.652 9.072C275.652 10.5653 275.118 11.824 274.052 12.848C273.028 13.8293 271.726 14.32 270.148 14.32ZM274.564 18.544V54H265.604V18.544H274.564ZM292.376 23.664C293.528 22.0427 295.107 20.6987 297.112 19.632C299.16 18.5227 301.485 17.968 304.088 17.968C307.117 17.968 309.848 18.7147 312.28 20.208C314.755 21.7013 316.696 23.8347 318.104 26.608C319.555 29.3387 320.28 32.5173 320.28 36.144C320.28 39.7707 319.555 42.992 318.104 45.808C316.696 48.5813 314.755 50.736 312.28 52.272C309.848 53.808 307.117 54.576 304.088 54.576C301.485 54.576 299.181 54.0427 297.176 52.976C295.213 51.9093 293.613 50.5653 292.376 48.944V70.896H283.416V18.544H292.376V23.664ZM311.128 36.144C311.128 34.0107 310.68 32.176 309.784 30.64C308.931 29.0613 307.779 27.8667 306.328 27.056C304.92 26.2453 303.384 25.84 301.72 25.84C300.099 25.84 298.563 26.2667 297.112 27.12C295.704 27.9307 294.552 29.1253 293.656 30.704C292.803 32.2827 292.376 34.1387 292.376 36.272C292.376 38.4053 292.803 40.2613 293.656 41.84C294.552 43.4187 295.704 44.6347 297.112 45.488C298.563 46.2987 300.099 46.704 301.72 46.704C303.384 46.704 304.92 46.2773 306.328 45.424C307.779 44.5707 308.931 43.3547 309.784 41.776C310.68 40.1973 311.128 38.32 311.128 36.144Z" fill="#ECECEC"/>
</svg>
