<svg width="242" height="54" viewBox="0 0 242 54" fill="none" xmlns="http://www.w3.org/2000/svg">
<path d="M65 42C62.925 42 60.975 41.606 59.15 40.818C57.325 40.031 55.7375 38.9625 54.3875 37.6125C53.0375 36.2625 51.969 34.675 51.182 32.85C50.394 31.025 50 29.075 50 27C50 24.925 50.394 22.975 51.182 21.15C51.969 19.325 53.0375 17.7375 54.3875 16.3875C55.7375 15.0375 57.325 13.9685 59.15 13.1805C60.975 12.3935 62.925 12 65 12C67.075 12 69.025 12.3935 70.85 13.1805C72.675 13.9685 74.2625 15.0375 75.6125 16.3875C76.9625 17.7375 78.031 19.325 78.818 21.15C79.606 22.975 80 24.925 80 27C80 29.075 79.606 31.025 78.818 32.85C78.031 34.675 76.9625 36.2625 75.6125 37.6125C74.2625 38.9625 72.675 40.031 70.85 40.818C69.025 41.606 67.075 42 65 42ZM63.5 38.925V36C62.675 36 61.969 35.7065 61.382 35.1195C60.794 34.5315 60.5 33.825 60.5 33V31.5L53.3 24.3C53.225 24.75 53.156 25.2 53.093 25.65C53.031 26.1 53 26.55 53 27C53 30.025 53.994 32.675 55.982 34.95C57.969 37.225 60.475 38.55 63.5 38.925ZM73.85 35.1C74.35 34.55 74.8 33.956 75.2 33.318C75.6 32.681 75.9315 32.0185 76.1945 31.3305C76.4565 30.6435 76.6565 29.9375 76.7945 29.2125C76.9315 28.4875 77 27.75 77 27C77 24.55 76.319 22.3125 74.957 20.2875C73.594 18.2625 71.775 16.8 69.5 15.9V16.5C69.5 17.325 69.2065 18.031 68.6195 18.618C68.0315 19.206 67.325 19.5 66.5 19.5H63.5V22.5C63.5 22.925 63.3565 23.281 63.0695 23.568C62.7815 23.856 62.425 24 62 24H59V27H68C68.425 27 68.7815 27.1435 69.0695 27.4305C69.3565 27.7185 69.5 28.075 69.5 28.5V33H71C71.65 33 72.2375 33.1935 72.7625 33.5805C73.2875 33.9685 73.65 34.475 73.85 35.1Z" fill="#0F92EA"/>
<path d="M48.096 7.496L38.736 41H30.816L24.528 17.144L17.952 41L10.08 41.048L1.056 7.496H8.256L14.16 33.512L20.976 7.496H28.464L34.896 33.368L40.848 7.496H48.096ZM93.5164 18.536C94.3804 17.128 95.5004 16.024 96.8764 15.224C98.2844 14.424 99.8844 14.024 101.676 14.024V21.08H99.9004C97.7884 21.08 96.1884 21.576 95.1004 22.568C94.0444 23.56 93.5164 25.288 93.5164 27.752V41H86.7964V14.408H93.5164V18.536ZM112.923 5.48V41H106.203V5.48H112.923ZM117.834 27.608C117.834 24.92 118.362 22.536 119.418 20.456C120.506 18.376 121.978 16.776 123.834 15.656C125.69 14.536 127.754 13.976 130.026 13.976C131.754 13.976 133.402 14.36 134.97 15.128C136.538 15.864 137.786 16.856 138.714 18.104V5.48H145.53V41H138.714V37.064C137.882 38.376 136.714 39.432 135.21 40.232C133.706 41.032 131.962 41.432 129.978 41.432C127.738 41.432 125.69 40.856 123.834 39.704C121.978 38.552 120.506 36.936 119.418 34.856C118.362 32.744 117.834 30.328 117.834 27.608ZM138.762 27.704C138.762 26.072 138.442 24.68 137.802 23.528C137.162 22.344 136.298 21.448 135.21 20.84C134.122 20.2 132.954 19.88 131.706 19.88C130.458 19.88 129.306 20.184 128.25 20.792C127.194 21.4 126.33 22.296 125.658 23.48C125.018 24.632 124.698 26.008 124.698 27.608C124.698 29.208 125.018 30.616 125.658 31.832C126.33 33.016 127.194 33.928 128.25 34.568C129.338 35.208 130.49 35.528 131.706 35.528C132.954 35.528 134.122 35.224 135.21 34.616C136.298 33.976 137.162 33.08 137.802 31.928C138.442 30.744 138.762 29.336 138.762 27.704ZM174.893 7.496V12.92H165.965V41H159.245V12.92H150.317V7.496H174.893ZM186.516 18.536C187.38 17.128 188.5 16.024 189.876 15.224C191.284 14.424 192.884 14.024 194.676 14.024V21.08H192.9C190.788 21.08 189.188 21.576 188.1 22.568C187.044 23.56 186.516 25.288 186.516 27.752V41H179.796V14.408H186.516V18.536ZM202.611 11.24C201.427 11.24 200.435 10.872 199.635 10.136C198.867 9.368 198.483 8.424 198.483 7.304C198.483 6.184 198.867 5.256 199.635 4.52C200.435 3.752 201.427 3.368 202.611 3.368C203.795 3.368 204.771 3.752 205.539 4.52C206.339 5.256 206.739 6.184 206.739 7.304C206.739 8.424 206.339 9.368 205.539 10.136C204.771 10.872 203.795 11.24 202.611 11.24ZM205.923 14.408V41H199.203V14.408H205.923ZM219.282 18.248C220.146 17.032 221.33 16.024 222.834 15.224C224.37 14.392 226.114 13.976 228.066 13.976C230.338 13.976 232.386 14.536 234.21 15.656C236.066 16.776 237.522 18.376 238.578 20.456C239.666 22.504 240.21 24.888 240.21 27.608C240.21 30.328 239.666 32.744 238.578 34.856C237.522 36.936 236.066 38.552 234.21 39.704C232.386 40.856 230.338 41.432 228.066 41.432C226.114 41.432 224.386 41.032 222.882 40.232C221.41 39.432 220.21 38.424 219.282 37.208V53.672H212.562V14.408H219.282V18.248ZM233.346 27.608C233.346 26.008 233.01 24.632 232.338 23.48C231.698 22.296 230.834 21.4 229.746 20.792C228.69 20.184 227.538 19.88 226.29 19.88C225.074 19.88 223.922 20.2 222.834 20.84C221.778 21.448 220.914 22.344 220.242 23.528C219.602 24.712 219.282 26.104 219.282 27.704C219.282 29.304 219.602 30.696 220.242 31.88C220.914 33.064 221.778 33.976 222.834 34.616C223.922 35.224 225.074 35.528 226.29 35.528C227.538 35.528 228.69 35.208 229.746 34.568C230.834 33.928 231.698 33.016 232.338 31.832C233.01 30.648 233.346 29.24 233.346 27.608Z" fill="#043150"/>
</svg>
