<svg width="320" height="68" viewBox="0 0 320 68" fill="none" xmlns="http://www.w3.org/2000/svg">
<path d="M63.128 6.328L50.648 51H40.088L31.704 19.192L22.936 51L12.44 51.064L0.408 6.328H10.008L17.88 41.016L26.968 6.328H36.952L45.528 40.824L53.464 6.328H63.128ZM123.689 21.048C124.841 19.1707 126.334 17.6987 128.169 16.632C130.046 15.5653 132.179 15.032 134.569 15.032V24.44H132.201C129.385 24.44 127.251 25.1013 125.801 26.424C124.393 27.7467 123.689 30.0507 123.689 33.336V51H114.729V15.544H123.689V21.048ZM149.564 3.64V51H140.604V3.64H149.564ZM156.112 33.144C156.112 29.56 156.816 26.3813 158.224 23.608C159.675 20.8347 161.637 18.7013 164.112 17.208C166.587 15.7147 169.339 14.968 172.368 14.968C174.672 14.968 176.869 15.48 178.96 16.504C181.051 17.4853 182.715 18.808 183.952 20.472V3.64H193.04V51H183.952V45.752C182.843 47.5013 181.285 48.9093 179.28 49.976C177.275 51.0427 174.949 51.576 172.304 51.576C169.317 51.576 166.587 50.808 164.112 49.272C161.637 47.736 159.675 45.5813 158.224 42.808C156.816 39.992 156.112 36.7707 156.112 33.144ZM184.016 33.272C184.016 31.096 183.589 29.24 182.736 27.704C181.883 26.1253 180.731 24.9307 179.28 24.12C177.829 23.2667 176.272 22.84 174.608 22.84C172.944 22.84 171.408 23.2453 170 24.056C168.592 24.8667 167.44 26.0613 166.544 27.64C165.691 29.176 165.264 31.0107 165.264 33.144C165.264 35.2773 165.691 37.1547 166.544 38.776C167.44 40.3547 168.592 41.5707 170 42.424C171.451 43.2773 172.987 43.704 174.608 43.704C176.272 43.704 177.829 43.2987 179.28 42.488C180.731 41.6347 181.883 40.44 182.736 38.904C183.589 37.3253 184.016 35.448 184.016 33.272ZM232.191 6.328V13.56H220.287V51H211.327V13.56H199.423V6.328H232.191ZM247.689 21.048C248.841 19.1707 250.334 17.6987 252.169 16.632C254.046 15.5653 256.179 15.032 258.569 15.032V24.44H256.201C253.385 24.44 251.251 25.1013 249.801 26.424C248.393 27.7467 247.689 30.0507 247.689 33.336V51H238.729V15.544H247.689V21.048ZM269.148 11.32C267.569 11.32 266.246 10.8293 265.18 9.848C264.156 8.824 263.644 7.56533 263.644 6.072C263.644 4.57866 264.156 3.34133 265.18 2.36C266.246 1.336 267.569 0.823997 269.148 0.823997C270.726 0.823997 272.028 1.336 273.052 2.36C274.118 3.34133 274.652 4.57866 274.652 6.072C274.652 7.56533 274.118 8.824 273.052 9.848C272.028 10.8293 270.726 11.32 269.148 11.32ZM273.564 15.544V51H264.604V15.544H273.564ZM291.376 20.664C292.528 19.0427 294.107 17.6987 296.112 16.632C298.16 15.5227 300.485 14.968 303.088 14.968C306.117 14.968 308.848 15.7147 311.28 17.208C313.755 18.7013 315.696 20.8347 317.104 23.608C318.555 26.3387 319.28 29.5173 319.28 33.144C319.28 36.7707 318.555 39.992 317.104 42.808C315.696 45.5813 313.755 47.736 311.28 49.272C308.848 50.808 306.117 51.576 303.088 51.576C300.485 51.576 298.181 51.0427 296.176 49.976C294.213 48.9093 292.613 47.5653 291.376 45.944V67.896H282.416V15.544H291.376V20.664ZM310.128 33.144C310.128 31.0107 309.68 29.176 308.784 27.64C307.931 26.0613 306.779 24.8667 305.328 24.056C303.92 23.2453 302.384 22.84 300.72 22.84C299.099 22.84 297.563 23.2667 296.112 24.12C294.704 24.9307 293.552 26.1253 292.656 27.704C291.803 29.2827 291.376 31.1387 291.376 33.272C291.376 35.4053 291.803 37.2613 292.656 38.84C293.552 40.4187 294.704 41.6347 296.112 42.488C297.563 43.2987 299.099 43.704 300.72 43.704C302.384 43.704 303.92 43.2773 305.328 42.424C306.779 41.5707 307.931 40.3547 308.784 38.776C309.68 37.1973 310.128 35.32 310.128 33.144Z" fill="#ECECEC"/>
</svg>
