<svg width="30" height="30" viewBox="0 0 30 30" fill="none" xmlns="http://www.w3.org/2000/svg">
<path d="M15 30C12.925 30 10.975 29.606 9.15 28.818C7.325 28.031 5.7375 26.9625 4.3875 25.6125C3.0375 24.2625 1.969 22.675 1.182 20.85C0.394 19.025 0 17.075 0 15C0 12.925 0.394 10.975 1.182 9.15C1.969 7.325 3.0375 5.7375 4.3875 4.3875C5.7375 3.0375 7.325 1.9685 9.15 1.1805C10.975 0.3935 12.925 0 15 0C17.075 0 19.025 0.3935 20.85 1.1805C22.675 1.9685 24.2625 3.0375 25.6125 4.3875C26.9625 5.7375 28.031 7.325 28.818 9.15C29.606 10.975 30 12.925 30 15C30 17.075 29.606 19.025 28.818 20.85C28.031 22.675 26.9625 24.2625 25.6125 25.6125C24.2625 26.9625 22.675 28.031 20.85 28.818C19.025 29.606 17.075 30 15 30ZM13.5 26.925V24C12.675 24 11.969 23.7065 11.382 23.1195C10.794 22.5315 10.5 21.825 10.5 21V19.5L3.3 12.3C3.225 12.75 3.156 13.2 3.093 13.65C3.031 14.1 3 14.55 3 15C3 18.025 3.994 20.675 5.982 22.95C7.969 25.225 10.475 26.55 13.5 26.925ZM23.85 23.1C24.35 22.55 24.8 21.956 25.2 21.318C25.6 20.681 25.9315 20.0185 26.1945 19.3305C26.4565 18.6435 26.6565 17.9375 26.7945 17.2125C26.9315 16.4875 27 15.75 27 15C27 12.55 26.319 10.3125 24.957 8.2875C23.594 6.2625 21.775 4.8 19.5 3.9V4.5C19.5 5.325 19.2065 6.031 18.6195 6.618C18.0315 7.206 17.325 7.5 16.5 7.5H13.5V10.5C13.5 10.925 13.3565 11.281 13.0695 11.568C12.7815 11.856 12.425 12 12 12H9V15H18C18.425 15 18.7815 15.1435 19.0695 15.4305C19.3565 15.7185 19.5 16.075 19.5 16.5V21H21C21.65 21 22.2375 21.1935 22.7625 21.5805C23.2875 21.9685 23.65 22.475 23.85 23.1Z" fill="#004A5E"/>
</svg>
